<?xml version="1.0" encoding="UTF-8"?>
<svg xmlns="http://www.w3.org/2000/svg" version="1.1" viewBox="0 0 400 400">
  <defs>
    <style>
      .cls-1 {
        fill: #161c22;
      }

      .cls-1, .cls-2 {
        fill-rule: evenodd;
      }

      .cls-3 {
        fill: #fff;
      }

      .cls-2 {
        fill: #00923f;
      }
    </style>
  </defs>
  <!-- Generator: Adobe Illustrator 28.7.1, SVG Export Plug-In . SVG Version: 1.2.0 Build 142)  -->
  <g>
    <g id="_图层_1" data-name="图层_1">
      <ellipse class="cls-3" cx="196.4" cy="198.4" rx="158.4" ry="150.7"/>
      <path id="path0" class="cls-2" d="M188,20.4c-1.4.2-6.2.6-10.6,1-4.4.4-10.1,1.1-12.6,1.7-2.5.5-6.5,1.3-8.8,1.8-13.5,2.6-39,13.2-49.6,20.6-1.7,1.1-4.6,3.1-6.6,4.2-10.4,6.2-33.9,28.3-43.3,40.8-2.3,3-5.1,6.7-6.2,8.2-1.2,1.5-3.2,4.8-4.4,7.2-1.3,2.4-3.4,6.1-4.8,8.2-2,3-5.4,10.2-5.4,11.3s-1.1,2.5-2.4,5.3c-1.3,2.8-2.8,6-3.3,7.1s-1.7,5.2-2.7,9.2-2.5,10.1-3.3,13.6c-1.7,7-2.6,13.8-3.2,25.6-.2,4-.5,9-.6,11.2-.2,2.6,0,6.3.4,10.8.4,3.7.9,9.9,1.2,13.8s.9,8.5,1.4,10.4c.4,1.9,1.3,6,2,9.2,1.5,7.3,5.6,19.6,9.3,27.6,1.5,3.4,3.1,6.9,3.4,7.8.8,2.4,3.1,6.2,6.9,12s4.4,6.9,5.6,9c4.6,8.5,15.5,20.4,35.1,38.4,9.8,9,32.2,22.8,43.2,26.6,2.4.8,5.7,2.1,7.3,2.9,6.1,2.8,7.9,3.3,30.8,8.3,6.2,1.4,25.9,2.8,34.6,2.5,12.9-.5,28.5-2.1,34.6-3.7,3-.8,7.3-1.8,9.6-2.2,6.2-1.3,12.8-3.4,18.2-5.8,2.6-1.2,6.8-3,9.3-4s6.2-2.8,8.2-4.1c2-1.3,5.5-3.3,7.7-4.5,6.3-3.5,16.3-10.3,20.3-14,2-1.9,5.6-4.9,7.9-6.8,6.5-5.4,7.5-6.3,11.4-11.3,2-2.6,5.9-7,8.7-9.8,5.5-5.8,7.6-8.5,10.8-14.3,1.2-2.2,3.4-5.8,4.9-7.9,3.3-4.8,8.2-14.6,9.9-19.8.7-2.1,1.8-5.1,2.5-6.5,2.8-6,3.6-8.5,4.9-14.2.8-3.3,2-8.4,2.7-11.4,3.4-13.5,4.6-35.8,2.9-54.7-.3-3.5-.7-7.7-.8-9.5-.3-4-.8-7.3-1.6-10.4-.3-1.3-1.4-5.8-2.4-10-2.4-10.7-3.5-14-6.7-20.4-1.5-3.1-3.7-7.8-4.9-10.4-4.9-11.4-16-28.6-24.1-37-1.4-1.4-4.1-4.4-6.1-6.6s-4.9-5.2-6.6-6.6c-1.6-1.4-5.5-5-8.6-8-5.1-4.9-8-7.1-17.6-13.7-1.1-.8-3.4-2.2-5-3.2s-5.2-3.1-7.8-4.8c-8.1-5-25.2-11.9-35.2-14.3-2.9-.7-8.1-1.9-11.6-2.8-11.5-2.8-39.4-4.8-49-3.6M212,47.8c39.9,2.8,78.1,23.2,105,56,5.1,6.2,7.4,9.6,15.2,22.2,4.7,7.6,11.6,25.3,13.3,34,.4,1.9,1.1,5.3,1.6,7.6,1.1,4.6,1.4,7.3,2.6,21.3.8,9,.8,9.9.2,16.2-.3,3.7-.7,8.6-.9,10.9-.6,11.1-5.5,30.6-9.6,38.9-1,2-2.7,5.8-3.8,8.2-9.1,21.5-33.8,50.3-52.5,61.4-2.5,1.5-6.5,3.9-8.9,5.5-5.9,3.8-14.4,8-20.8,10.1-2.9,1-6.6,2.3-8.4,3-1.8.7-6,1.8-9.4,2.5s-7.2,1.5-8.4,1.8c-5.7,1.4-28.1,3.2-33.5,2.6-2.4-.2-7.9-.7-12.3-1-6.3-.5-9.2-.9-13.6-1.9-3.1-.8-7.3-1.8-9.4-2.3-8.5-2-17.2-5.4-27.4-10.7-9.4-4.9-14.9-7.9-16.4-9-1-.7-4.4-3.4-7.7-5.9-9.8-7.5-25.6-23.7-31.4-32.1-11.3-16.5-13.2-19.8-15.6-27-.7-2.2-2.3-6.1-3.5-8.7-2.7-5.9-5.3-15.4-7.9-28.9-1.5-7.6-1.6-34-.2-45.8,2.3-19.1,11-42.8,20.8-56.8,1.5-2.1,3.5-5,4.4-6.5,6.8-10.4,17.6-22.6,26-29.3,1.6-1.3,4.7-3.8,6.8-5.6,5.5-4.7,7.8-6.3,13.3-9.3,2.7-1.5,6.2-3.5,7.7-4.5,3.7-2.4,5.5-3.3,8.8-4.4,1.5-.5,5.2-2,8.2-3.4,7.2-3.4,22.8-7.6,31.8-8.7,13-1.5,20.7-1.6,35.8-.6M194.6,99.9c-3.7,2.2-6.8,14.1-9.4,35.9-2.2,18.2-2.4,18.8-12.2,25.5-2.8,1.9-7.5,5.3-10.5,7.6s-6.8,5-8.3,6.1-4.7,3.4-7,5.2-5.6,4.2-7.3,5.3-4.5,3.2-6.2,4.6c-1.7,1.4-5.3,4.1-8.1,6s-6.8,4.9-9,6.6c-2.2,1.7-5.8,4.4-8,6-10.4,7.6-11.2,11.4-1.9,9.9s18.2-4.1,41.8-10c24.6-6.2,26-6.4,29.2-4.5,2.6,1.6,4.4,8.3,4.4,16.3s2.5,30.9,3.8,37.7c1.7,8.7.6,11.6-5.4,14.5s-10.6,10-8.5,13.2c1.2,1.8,2.6,2.2,9.1,2.6,7.1.4,9.5,1.3,11.8,4.4,5.1,7,6,7,11,.5,2.8-3.7,6.1-4.9,13.5-4.9s7.6-1.1,7.6-4-3-7.8-7.1-10.6c-7.1-4.9-7.5-6.4-5.9-18.2,2.1-15.2,2.3-17.7,2.8-31.4,1-24.9.2-24.4,28.4-17.5,47.9,11.9,49.4,12.1,49.7,9.2.2-1.9-1.9-4-9.8-9.6-8.7-6.2-18.9-13.7-23.6-17.3-1.8-1.4-4.8-3.5-6.8-4.9-2-1.3-4.9-3.4-6.4-4.6-1.5-1.2-4.3-3.3-6.2-4.6s-4.6-3.3-6-4.4-3.7-2.8-5.1-3.8c-13.6-9.2-15.7-12.2-17.7-25.8-4.4-30.5-10.3-44.9-16.6-41.1"/>
      <path id="path1" class="cls-1" d="M191.8,12.8c-.9.2-2.5.4-3.6.4s-4.2.3-7,.6-6.4.8-8.2,1c-9.4,1.1-13.4,1.8-15.8,2.6-1.5.5-3.1,1-3.5,1-1.1,0-6.6,1.4-9.5,2.4-1.4.5-3,.8-3.6.8s-2.4.6-4,1.4-3.7,1.6-4.6,1.8c-.9.3-2.7,1-3.9,1.6s-2.8,1.2-3.6,1.4-2.8,1-4.4,1.8c-1.7.9-3.2,1.6-3.4,1.6s-1.4.6-2.7,1.4c-1.3.8-2.5,1.4-2.8,1.4s-1.7.8-3.1,1.7c-1.5.9-3.9,2.4-5.3,3.3-6.4,3.9-15.8,10.3-17.6,12-2.4,2.2-4.6,4.2-6.8,5.8-5.9,4.6-21.8,20.5-24.7,24.8-1,1.5-1.6,2.3-4.9,6.3-2.5,3.1-4.5,6-6,8.7-.8,1.6-2.1,3.5-2.8,4.3s-1.8,2.5-2.5,3.9-2,3.5-3,4.6c-1,1.2-2.3,3.1-2.9,4.4s-1.3,2.8-1.6,3.3c-.3.6-.8,2.2-1.2,3.6-.6,2.3-3.2,8.5-4.8,11.6-2.1,4-5.4,14.5-5.4,17.3s-.4,2.1-.8,3.4c-.4,1.3-1.2,4.8-1.8,7.9-.5,3.1-1.2,6.3-1.6,7.2-2.7,7.4-2.7,53.4,0,62.4.3,1.1.9,3.7,1.2,5.8s1.1,5.7,1.8,8c.6,2.3,1.5,5.9,1.9,8,.7,3.6,1.5,6.1,4.2,12,.6,1.4,1.4,3.6,1.6,4.8.5,2.6,8.9,19.9,12.2,25,1.3,2,2.6,4.1,2.9,4.7,9.3,16.4,32.5,40.7,51.8,54.3,10.2,7.2,22.3,14.5,26.1,15.8,1,.3,2.9,1.2,4.4,1.9,1.5.7,3.1,1.5,3.7,1.6.5.2,2.3.9,3.8,1.6,5.4,2.5,11.2,4.6,15,5.4,2.1.5,4.4,1.1,5.2,1.4s3.3.9,5.6,1.4,5.7,1.3,7.5,1.8c14.9,4.3,55.2,4.3,76.1,0,14.4-2.9,19.7-4.2,25.2-6.2,17.1-6.2,31.8-13.7,46.9-24,1.1-.7,8.3-6.6,12.1-9.8,5.9-5,11.3-10.3,17.1-16.9,7.4-8.3,8.2-9.3,12.9-15.4,12.4-16.3,23.4-39.8,28.1-60,4.4-18.6,4.8-22,5.7-39.9,1-20.5-.6-38.2-5.1-56.1-2.2-9-4.2-15.1-6.3-20.2-1-2.2-2.2-5.4-2.7-7-1.2-3.6-7-16.1-9.1-19.4-.8-1.3-2.6-4-3.8-5.9-3.1-4.7-4.6-7.1-6.6-10.5-.9-1.5-2.3-3.6-3.1-4.5-.8-1-1.9-2.3-2.4-3s-3-3.4-5.5-6.1c-2.5-2.6-6-6.6-7.9-8.8-1.9-2.2-4-4.4-4.8-5-2.4-1.7-6.3-5.2-11.1-9.6-4.8-4.5-8.2-7.2-12.2-9.8-1.3-.8-3.2-2.2-4.2-3s-4.4-2.8-7.6-4.5c-3.2-1.6-7-3.9-8.4-5-2.4-1.9-5.4-3.2-11.6-5.2-1.2-.4-3.8-1.5-5.8-2.4s-4.4-2.1-5.4-2.5c-2.5-1.1-9-3.1-11.2-3.5-1-.2-2.1-.4-2.5-.7-.7-.4-2.7-.8-8.9-2.1-1.5-.3-3.7-.8-4.8-1.2-1.1-.3-3.2-.7-4.7-.8s-3.3-.4-4-.6c-.7-.2-4-.6-7.3-.8s-7.6-.6-9.6-.8c-5.6-.6-17-.8-18.8-.4h0l-.2.4ZM212.2,20.8c10.2.5,17,1.4,24.8,3.3,3.5.9,8.8,2.1,11.6,2.8,5.8,1.4,8.2,2.2,15,5,11.4,4.6,15.6,6.6,20.2,9.4,2.7,1.6,6.2,3.8,7.8,4.8s3.9,2.4,5,3.2c9.6,6.6,12.5,8.9,17.6,13.7,3.1,3,7,6.6,8.6,8s4.6,4.4,6.6,6.6,4.7,5.2,6.1,6.6c8,8.4,19.2,25.6,24.1,37,1.1,2.6,3.3,7.3,4.9,10.4,3.2,6.4,4.3,9.7,6.7,20.4,1,4.2,2,8.7,2.4,10,.8,3.1,1.3,6.4,1.6,10.4.1,1.8.5,6,.8,9.5,1.7,18.9.6,41.2-2.9,54.7-.8,3-2,8.1-2.7,11.4-1.3,5.7-2.1,8.2-4.9,14.2-.6,1.4-1.8,4.4-2.5,6.5-1.7,5.2-6.6,15-9.9,19.8-1.5,2.1-3.6,5.7-4.9,7.9-3.2,5.8-5.3,8.6-10.8,14.3-2.7,2.8-6.6,7.3-8.7,9.8-3.9,5-4.9,5.9-11.4,11.3-2.3,1.9-5.8,5-7.9,6.8-4,3.7-14,10.5-20.3,14-2.2,1.2-5.7,3.2-7.7,4.5s-5.7,3.1-8.2,4.1-6.7,2.8-9.3,4c-5.4,2.4-12,4.5-18.2,5.8-2.3.5-6.6,1.5-9.6,2.2-15.9,4.1-53.2,4.7-69.2,1.2-22.9-5-24.7-5.5-30.8-8.3-1.6-.8-5-2-7.3-2.9-11-3.7-33.4-17.5-43.2-26.6-19.6-18.1-30.4-30-35.1-38.4-1.2-2.1-3.7-6.2-5.6-9-3.9-5.8-6.1-9.7-6.9-12-.3-.9-1.8-4.4-3.4-7.8-3.6-8-7.8-20.3-9.3-27.6-.7-3.2-1.6-7.3-2-9.2s-1.1-6.5-1.4-10.4-.9-10.1-1.2-13.8c-.4-4.5-.6-8.2-.4-10.8.1-2.2.4-7.2.6-11.2.6-11.8,1.5-18.6,3.2-25.6.9-3.5,2.4-9.6,3.3-13.6,1-4,2.2-8.1,2.7-9.2.5-1.1,2-4.3,3.3-7.1,1.3-2.8,2.4-5.2,2.4-5.3,0-1.1,3.4-8.3,5.4-11.3,1.4-2.1,3.5-5.8,4.8-8.2,1.3-2.4,3.3-5.7,4.4-7.2,1.2-1.5,4-5.2,6.2-8.2,9.4-12.4,32.9-34.5,43.3-40.8,2-1.2,4.9-3.1,6.6-4.2,10.6-7.4,36.1-18,49.6-20.6,2.3-.4,6.3-1.3,8.8-1.8s8.2-1.3,12.6-1.7c4.4-.4,9.2-.8,10.6-1,2.8-.4,12.3-.2,24.2.4h0v-.2ZM187,47.4c-17.1,1.3-31.8,4.6-42.6,9.6-3,1.4-6.6,2.9-8.2,3.4-3.4,1.1-5.2,2-8.8,4.4-1.5,1-5,3.1-7.7,4.5-5.5,3-7.8,4.6-13.3,9.3-2.1,1.8-5.1,4.3-6.8,5.6-8.4,6.7-19.2,18.9-26,29.3-1,1.5-3,4.4-4.4,6.5-9.8,14-18.5,37.7-20.8,56.8-1.4,11.8-1.3,38.2.2,45.8,2.6,13.5,5.2,23,7.9,28.9,1.2,2.6,2.7,6.5,3.5,8.7,2.3,7.1,4.3,10.5,15.6,27,5.7,8.4,21.6,24.5,31.4,32.1,3.3,2.5,6.7,5.2,7.7,5.9,1.5,1.1,6.9,4.1,16.4,9,10.2,5.3,18.9,8.7,27.4,10.7,2.1.5,6.3,1.5,9.4,2.3,4.4,1.1,7.3,1.5,13.6,1.9,4.4.3,9.9.8,12.3,1,5.5.6,27.9-1.2,33.5-2.6,1.2-.3,5-1.1,8.4-1.8,3.4-.7,7.6-1.8,9.4-2.5,1.8-.7,5.5-2,8.4-3,6.3-2.2,14.9-6.4,20.8-10.1,2.4-1.5,6.4-4,8.9-5.5,18.7-11.1,43.4-39.9,52.5-61.4,1.1-2.5,2.8-6.2,3.8-8.2,4.2-8.3,9-27.8,9.6-38.9.1-2.3.5-7.2.9-10.9.6-6.3.6-7.2-.2-16.2-1.2-14-1.6-16.7-2.6-21.3s-1.3-5.7-1.6-7.6c-1.7-8.7-8.6-26.4-13.3-34-15.5-25.1-29.2-39.8-50.5-54-22.2-14.8-43.9-22.4-69.6-24.2-13-.9-16.7-1-25-.4h-.2ZM215.8,51.8c7.3.7,9.3,1.1,20.5,3.8,9.3,2.3,10.9,2.8,16.3,5.3,2.2,1,5.7,2.6,7.7,3.4,2,.8,5.2,2.5,7.1,3.6s5.4,3,7.8,4.2c2.9,1.5,5.6,3.2,8.2,5.4,2.1,1.8,6.1,4.9,8.8,6.9,17,12.9,37,40.1,44,60.1.8,2.2,2,5.7,2.8,7.8,8.3,22.8,9.6,54.3,3.1,81.5-2.1,9-2.4,10.1-4.4,15-.7,1.7-1.8,4.9-2.4,7.2-1.4,4.7-3.7,9.6-6.5,13.7-13.7,20.3-15.8,22.9-25.9,33-15.4,15.3-21.3,19.6-38.6,28.1-13.7,6.7-21.3,9.5-32.1,11.6-2.4.5-6.1,1.3-8.3,1.8-9.1,2.2-34.8,2.4-47.4.3-13.1-2.2-23.3-4.7-29.6-7.4-2.5-1.1-6.1-2.5-8-3.2-4.7-1.7-8.8-3.8-12.8-6.4-1.9-1.2-4.9-3.2-6.8-4.4-1.9-1.2-5.1-3.5-7.2-5.2s-5.3-4.2-7.2-5.6c-9-6.8-23.9-23.1-29-31.8-1.1-1.8-2.9-4.8-4.1-6.7-3-4.6-9.4-16.5-10.4-19.2-1.3-3.5-4.3-13.7-5.8-19.6-2.4-9.4-5.4-33.8-4.8-40,0-1,.4-4.1.6-7,.9-11.1,1.3-14.2,2.5-19.4,1.9-8.3,5.3-19.9,7.1-24,.9-2.1,2.4-5.5,3.3-7.7,2.8-6.9,10.6-19.6,16-26,1.9-2.2,5.2-6.3,7.4-9.2,4.4-5.7,5.8-7.1,12.3-12.6,2.4-2,5.8-4.9,7.6-6.4,3.1-2.7,6-4.8,14.8-11,5.1-3.6,13.9-8,20.4-10.2,2.4-.8,6.2-2.1,8.3-2.9,10-3.7,26.6-6.8,38.7-7.3,3.2,0,5.9-.3,6-.4.4-.3,13.6.2,20.2.9h-.2ZM315.2,379.4c-.3.3-.3.6,0,.6s.6-.3.9-.6c.3-.3.3-.6,0-.6s-.6.3-.9.6h0ZM312,381.4c-.4.5-.4.6.1.6s.8-.3,1.1-.6c.4-.5.4-.6-.1-.6s-.8.3-1.1.6h0Z"/>
    </g>
  </g>
</svg>